<mxfile host="65bd71144e">
    <diagram id="R2lEEEUBdFMjLlhIrx00" name="Page-1">
        <mxGraphModel dx="1119" dy="595" grid="1" gridSize="10" guides="1" tooltips="1" connect="1" arrows="1" fold="1" page="1" pageScale="1" pageWidth="850" pageHeight="1100" math="0" shadow="0" extFonts="Permanent Marker^https://fonts.googleapis.com/css?family=Permanent+Marker">
            <root>
                <mxCell id="0"/>
                <mxCell id="1" parent="0"/>
                <mxCell id="C-vyLk0tnHw3VtMMgP7b-1" value="" style="edgeStyle=entityRelationEdgeStyle;endArrow=ERzeroToMany;startArrow=ERone;endFill=1;startFill=0;" parent="1" source="C-vyLk0tnHw3VtMMgP7b-24" target="C-vyLk0tnHw3VtMMgP7b-6" edge="1">
                    <mxGeometry width="100" height="100" relative="1" as="geometry">
                        <mxPoint x="340" y="720" as="sourcePoint"/>
                        <mxPoint x="440" y="620" as="targetPoint"/>
                    </mxGeometry>
                </mxCell>
                <mxCell id="C-vyLk0tnHw3VtMMgP7b-12" value="" style="edgeStyle=entityRelationEdgeStyle;endArrow=ERzeroToMany;startArrow=ERone;endFill=1;startFill=0;" parent="1" source="C-vyLk0tnHw3VtMMgP7b-3" target="C-vyLk0tnHw3VtMMgP7b-17" edge="1">
                    <mxGeometry width="100" height="100" relative="1" as="geometry">
                        <mxPoint x="400" y="180" as="sourcePoint"/>
                        <mxPoint x="460" y="205" as="targetPoint"/>
                    </mxGeometry>
                </mxCell>
                <mxCell id="C-vyLk0tnHw3VtMMgP7b-2" value="Orders" style="shape=table;startSize=30;container=1;collapsible=1;childLayout=tableLayout;fixedRows=1;rowLines=0;fontStyle=1;align=center;resizeLast=1;" parent="1" vertex="1">
                    <mxGeometry x="450" y="120" width="250" height="130" as="geometry">
                        <mxRectangle x="450" y="120" width="70" height="30" as="alternateBounds"/>
                    </mxGeometry>
                </mxCell>
                <mxCell id="C-vyLk0tnHw3VtMMgP7b-3" value="" style="shape=partialRectangle;collapsible=0;dropTarget=0;pointerEvents=0;fillColor=none;points=[[0,0.5],[1,0.5]];portConstraint=eastwest;top=0;left=0;right=0;bottom=1;" parent="C-vyLk0tnHw3VtMMgP7b-2" vertex="1">
                    <mxGeometry y="30" width="250" height="30" as="geometry"/>
                </mxCell>
                <mxCell id="C-vyLk0tnHw3VtMMgP7b-4" value="PK" style="shape=partialRectangle;overflow=hidden;connectable=0;fillColor=none;top=0;left=0;bottom=0;right=0;fontStyle=1;" parent="C-vyLk0tnHw3VtMMgP7b-3" vertex="1">
                    <mxGeometry width="30" height="30" as="geometry"/>
                </mxCell>
                <mxCell id="C-vyLk0tnHw3VtMMgP7b-5" value="order_id int NOT NULL " style="shape=partialRectangle;overflow=hidden;connectable=0;fillColor=none;top=0;left=0;bottom=0;right=0;align=left;spacingLeft=6;fontStyle=5;" parent="C-vyLk0tnHw3VtMMgP7b-3" vertex="1">
                    <mxGeometry x="30" width="220" height="30" as="geometry"/>
                </mxCell>
                <mxCell id="C-vyLk0tnHw3VtMMgP7b-6" value="" style="shape=partialRectangle;collapsible=0;dropTarget=0;pointerEvents=0;fillColor=none;points=[[0,0.5],[1,0.5]];portConstraint=eastwest;top=0;left=0;right=0;bottom=0;" parent="C-vyLk0tnHw3VtMMgP7b-2" vertex="1">
                    <mxGeometry y="60" width="250" height="30" as="geometry"/>
                </mxCell>
                <mxCell id="C-vyLk0tnHw3VtMMgP7b-7" value="FK1" style="shape=partialRectangle;overflow=hidden;connectable=0;fillColor=none;top=0;left=0;bottom=0;right=0;" parent="C-vyLk0tnHw3VtMMgP7b-6" vertex="1">
                    <mxGeometry width="30" height="30" as="geometry"/>
                </mxCell>
                <mxCell id="C-vyLk0tnHw3VtMMgP7b-8" value="customer_id int NOT NULL" style="shape=partialRectangle;overflow=hidden;connectable=0;fillColor=none;top=0;left=0;bottom=0;right=0;align=left;spacingLeft=6;" parent="C-vyLk0tnHw3VtMMgP7b-6" vertex="1">
                    <mxGeometry x="30" width="220" height="30" as="geometry"/>
                </mxCell>
                <mxCell id="C-vyLk0tnHw3VtMMgP7b-9" value="" style="shape=partialRectangle;collapsible=0;dropTarget=0;pointerEvents=0;fillColor=none;points=[[0,0.5],[1,0.5]];portConstraint=eastwest;top=0;left=0;right=0;bottom=0;" parent="C-vyLk0tnHw3VtMMgP7b-2" vertex="1">
                    <mxGeometry y="90" width="250" height="30" as="geometry"/>
                </mxCell>
                <mxCell id="C-vyLk0tnHw3VtMMgP7b-10" value="" style="shape=partialRectangle;overflow=hidden;connectable=0;fillColor=none;top=0;left=0;bottom=0;right=0;" parent="C-vyLk0tnHw3VtMMgP7b-9" vertex="1">
                    <mxGeometry width="30" height="30" as="geometry"/>
                </mxCell>
                <mxCell id="C-vyLk0tnHw3VtMMgP7b-11" value="order_date date NOT NULL" style="shape=partialRectangle;overflow=hidden;connectable=0;fillColor=none;top=0;left=0;bottom=0;right=0;align=left;spacingLeft=6;" parent="C-vyLk0tnHw3VtMMgP7b-9" vertex="1">
                    <mxGeometry x="30" width="220" height="30" as="geometry"/>
                </mxCell>
                <mxCell id="C-vyLk0tnHw3VtMMgP7b-13" value="Shipments" style="shape=table;startSize=30;container=1;collapsible=1;childLayout=tableLayout;fixedRows=1;rowLines=0;fontStyle=1;align=center;resizeLast=1;" parent="1" vertex="1">
                    <mxGeometry x="450" y="280" width="250" height="130" as="geometry"/>
                </mxCell>
                <mxCell id="C-vyLk0tnHw3VtMMgP7b-14" value="" style="shape=partialRectangle;collapsible=0;dropTarget=0;pointerEvents=0;fillColor=none;points=[[0,0.5],[1,0.5]];portConstraint=eastwest;top=0;left=0;right=0;bottom=1;" parent="C-vyLk0tnHw3VtMMgP7b-13" vertex="1">
                    <mxGeometry y="30" width="250" height="30" as="geometry"/>
                </mxCell>
                <mxCell id="C-vyLk0tnHw3VtMMgP7b-15" value="PK" style="shape=partialRectangle;overflow=hidden;connectable=0;fillColor=none;top=0;left=0;bottom=0;right=0;fontStyle=1;" parent="C-vyLk0tnHw3VtMMgP7b-14" vertex="1">
                    <mxGeometry width="30" height="30" as="geometry"/>
                </mxCell>
                <mxCell id="C-vyLk0tnHw3VtMMgP7b-16" value="shipment_id int NOT NULL " style="shape=partialRectangle;overflow=hidden;connectable=0;fillColor=none;top=0;left=0;bottom=0;right=0;align=left;spacingLeft=6;fontStyle=5;" parent="C-vyLk0tnHw3VtMMgP7b-14" vertex="1">
                    <mxGeometry x="30" width="220" height="30" as="geometry"/>
                </mxCell>
                <mxCell id="C-vyLk0tnHw3VtMMgP7b-17" value="" style="shape=partialRectangle;collapsible=0;dropTarget=0;pointerEvents=0;fillColor=none;points=[[0,0.5],[1,0.5]];portConstraint=eastwest;top=0;left=0;right=0;bottom=0;" parent="C-vyLk0tnHw3VtMMgP7b-13" vertex="1">
                    <mxGeometry y="60" width="250" height="30" as="geometry"/>
                </mxCell>
                <mxCell id="C-vyLk0tnHw3VtMMgP7b-18" value="FK1" style="shape=partialRectangle;overflow=hidden;connectable=0;fillColor=none;top=0;left=0;bottom=0;right=0;" parent="C-vyLk0tnHw3VtMMgP7b-17" vertex="1">
                    <mxGeometry width="30" height="30" as="geometry"/>
                </mxCell>
                <mxCell id="C-vyLk0tnHw3VtMMgP7b-19" value="order_id int NOT NULL" style="shape=partialRectangle;overflow=hidden;connectable=0;fillColor=none;top=0;left=0;bottom=0;right=0;align=left;spacingLeft=6;" parent="C-vyLk0tnHw3VtMMgP7b-17" vertex="1">
                    <mxGeometry x="30" width="220" height="30" as="geometry"/>
                </mxCell>
                <mxCell id="C-vyLk0tnHw3VtMMgP7b-20" value="" style="shape=partialRectangle;collapsible=0;dropTarget=0;pointerEvents=0;fillColor=none;points=[[0,0.5],[1,0.5]];portConstraint=eastwest;top=0;left=0;right=0;bottom=0;" parent="C-vyLk0tnHw3VtMMgP7b-13" vertex="1">
                    <mxGeometry y="90" width="250" height="30" as="geometry"/>
                </mxCell>
                <mxCell id="C-vyLk0tnHw3VtMMgP7b-21" value="" style="shape=partialRectangle;overflow=hidden;connectable=0;fillColor=none;top=0;left=0;bottom=0;right=0;" parent="C-vyLk0tnHw3VtMMgP7b-20" vertex="1">
                    <mxGeometry width="30" height="30" as="geometry"/>
                </mxCell>
                <mxCell id="C-vyLk0tnHw3VtMMgP7b-22" value="shipment_date date NOT NULL" style="shape=partialRectangle;overflow=hidden;connectable=0;fillColor=none;top=0;left=0;bottom=0;right=0;align=left;spacingLeft=6;" parent="C-vyLk0tnHw3VtMMgP7b-20" vertex="1">
                    <mxGeometry x="30" width="220" height="30" as="geometry"/>
                </mxCell>
                <mxCell id="C-vyLk0tnHw3VtMMgP7b-23" value="Customers" style="shape=table;startSize=30;container=1;collapsible=1;childLayout=tableLayout;fixedRows=1;rowLines=0;fontStyle=1;align=center;resizeLast=1;" parent="1" vertex="1">
                    <mxGeometry x="120" y="120" width="250" height="100" as="geometry"/>
                </mxCell>
                <mxCell id="C-vyLk0tnHw3VtMMgP7b-24" value="" style="shape=partialRectangle;collapsible=0;dropTarget=0;pointerEvents=0;fillColor=none;points=[[0,0.5],[1,0.5]];portConstraint=eastwest;top=0;left=0;right=0;bottom=1;" parent="C-vyLk0tnHw3VtMMgP7b-23" vertex="1">
                    <mxGeometry y="30" width="250" height="30" as="geometry"/>
                </mxCell>
                <mxCell id="C-vyLk0tnHw3VtMMgP7b-25" value="PK" style="shape=partialRectangle;overflow=hidden;connectable=0;fillColor=none;top=0;left=0;bottom=0;right=0;fontStyle=1;" parent="C-vyLk0tnHw3VtMMgP7b-24" vertex="1">
                    <mxGeometry width="30" height="30" as="geometry"/>
                </mxCell>
                <mxCell id="C-vyLk0tnHw3VtMMgP7b-26" value="customer_id int NOT NULL " style="shape=partialRectangle;overflow=hidden;connectable=0;fillColor=none;top=0;left=0;bottom=0;right=0;align=left;spacingLeft=6;fontStyle=5;" parent="C-vyLk0tnHw3VtMMgP7b-24" vertex="1">
                    <mxGeometry x="30" width="220" height="30" as="geometry"/>
                </mxCell>
                <mxCell id="C-vyLk0tnHw3VtMMgP7b-27" value="" style="shape=partialRectangle;collapsible=0;dropTarget=0;pointerEvents=0;fillColor=none;points=[[0,0.5],[1,0.5]];portConstraint=eastwest;top=0;left=0;right=0;bottom=0;" parent="C-vyLk0tnHw3VtMMgP7b-23" vertex="1">
                    <mxGeometry y="60" width="250" height="30" as="geometry"/>
                </mxCell>
                <mxCell id="C-vyLk0tnHw3VtMMgP7b-28" value="" style="shape=partialRectangle;overflow=hidden;connectable=0;fillColor=none;top=0;left=0;bottom=0;right=0;" parent="C-vyLk0tnHw3VtMMgP7b-27" vertex="1">
                    <mxGeometry width="30" height="30" as="geometry"/>
                </mxCell>
                <mxCell id="C-vyLk0tnHw3VtMMgP7b-29" value="customer_name char(50) NOT NULL" style="shape=partialRectangle;overflow=hidden;connectable=0;fillColor=none;top=0;left=0;bottom=0;right=0;align=left;spacingLeft=6;" parent="C-vyLk0tnHw3VtMMgP7b-27" vertex="1">
                    <mxGeometry x="30" width="220" height="30" as="geometry"/>
                </mxCell>
            </root>
        </mxGraphModel>
    </diagram>
    <diagram id="YPObXBI9GgR0V4uojonB" name="Page-2">
        <mxGraphModel dx="1316" dy="700" grid="1" gridSize="10" guides="1" tooltips="1" connect="1" arrows="1" fold="1" page="1" pageScale="1" pageWidth="850" pageHeight="1100" math="0" shadow="0">
            <root>
                <mxCell id="4qv8pB9AUuecaQSwBi2r-0"/>
                <mxCell id="4qv8pB9AUuecaQSwBi2r-1" parent="4qv8pB9AUuecaQSwBi2r-0"/>
                <mxCell id="Mkf4frqGfS_oOomi2DQT-28" value="" style="shape=table;startSize=0;container=1;collapsible=0;childLayout=tableLayout;perimeterSpacing=0;strokeWidth=1;" parent="4qv8pB9AUuecaQSwBi2r-1" vertex="1">
                    <mxGeometry x="51" y="40" width="139" height="344" as="geometry"/>
                </mxCell>
                <mxCell id="Mkf4frqGfS_oOomi2DQT-29" value="" style="shape=partialRectangle;collapsible=0;dropTarget=0;pointerEvents=0;fillColor=none;top=0;left=0;bottom=0;right=0;points=[[0,0.5],[1,0.5]];portConstraint=eastwest;" parent="Mkf4frqGfS_oOomi2DQT-28" vertex="1">
                    <mxGeometry width="139" height="30" as="geometry"/>
                </mxCell>
                <mxCell id="Mkf4frqGfS_oOomi2DQT-30" value="&lt;span style=&quot;font-size: 15px&quot;&gt;Products&lt;/span&gt;" style="shape=partialRectangle;html=1;whiteSpace=wrap;connectable=0;overflow=hidden;fillColor=none;top=0;left=0;bottom=0;right=0;" parent="Mkf4frqGfS_oOomi2DQT-29" vertex="1">
                    <mxGeometry width="139" height="30" as="geometry"/>
                </mxCell>
                <mxCell id="Mkf4frqGfS_oOomi2DQT-31" value="" style="shape=partialRectangle;collapsible=0;dropTarget=0;pointerEvents=0;fillColor=none;top=0;left=0;bottom=0;right=0;points=[[0,0.5],[1,0.5]];portConstraint=eastwest;" parent="Mkf4frqGfS_oOomi2DQT-28" vertex="1">
                    <mxGeometry y="30" width="139" height="18" as="geometry"/>
                </mxCell>
                <mxCell id="Mkf4frqGfS_oOomi2DQT-32" value="ID (PK)" style="shape=partialRectangle;html=1;whiteSpace=wrap;connectable=0;overflow=hidden;fillColor=none;top=0;left=0;bottom=0;right=0;" parent="Mkf4frqGfS_oOomi2DQT-31" vertex="1">
                    <mxGeometry width="139" height="18" as="geometry"/>
                </mxCell>
                <mxCell id="Mkf4frqGfS_oOomi2DQT-33" value="" style="shape=partialRectangle;collapsible=0;dropTarget=0;pointerEvents=0;fillColor=none;top=0;left=0;bottom=0;right=0;points=[[0,0.5],[1,0.5]];portConstraint=eastwest;" parent="Mkf4frqGfS_oOomi2DQT-28" vertex="1">
                    <mxGeometry y="48" width="139" height="19" as="geometry"/>
                </mxCell>
                <mxCell id="Mkf4frqGfS_oOomi2DQT-34" value="Name" style="shape=partialRectangle;html=1;whiteSpace=wrap;connectable=0;overflow=hidden;fillColor=none;top=0;left=0;bottom=0;right=0;" parent="Mkf4frqGfS_oOomi2DQT-33" vertex="1">
                    <mxGeometry width="139" height="19" as="geometry"/>
                </mxCell>
                <mxCell id="Mkf4frqGfS_oOomi2DQT-35" value="" style="shape=partialRectangle;collapsible=0;dropTarget=0;pointerEvents=0;fillColor=none;top=0;left=0;bottom=0;right=0;points=[[0,0.5],[1,0.5]];portConstraint=eastwest;" parent="Mkf4frqGfS_oOomi2DQT-28" vertex="1">
                    <mxGeometry y="67" width="139" height="18" as="geometry"/>
                </mxCell>
                <mxCell id="Mkf4frqGfS_oOomi2DQT-36" value="Brand (FK)" style="shape=partialRectangle;html=1;whiteSpace=wrap;connectable=0;overflow=hidden;fillColor=none;top=0;left=0;bottom=0;right=0;" parent="Mkf4frqGfS_oOomi2DQT-35" vertex="1">
                    <mxGeometry width="139" height="18" as="geometry"/>
                </mxCell>
                <mxCell id="Mkf4frqGfS_oOomi2DQT-37" value="" style="shape=partialRectangle;collapsible=0;dropTarget=0;pointerEvents=0;fillColor=none;top=0;left=0;bottom=0;right=0;points=[[0,0.5],[1,0.5]];portConstraint=eastwest;" parent="Mkf4frqGfS_oOomi2DQT-28" vertex="1">
                    <mxGeometry y="85" width="139" height="21" as="geometry"/>
                </mxCell>
                <mxCell id="Mkf4frqGfS_oOomi2DQT-38" value="Category (FK)" style="shape=partialRectangle;html=1;whiteSpace=wrap;connectable=0;overflow=hidden;fillColor=none;top=0;left=0;bottom=0;right=0;" parent="Mkf4frqGfS_oOomi2DQT-37" vertex="1">
                    <mxGeometry width="139" height="21" as="geometry"/>
                </mxCell>
                <mxCell id="Mkf4frqGfS_oOomi2DQT-39" value="" style="shape=partialRectangle;collapsible=0;dropTarget=0;pointerEvents=0;fillColor=none;top=0;left=0;bottom=0;right=0;points=[[0,0.5],[1,0.5]];portConstraint=eastwest;" parent="Mkf4frqGfS_oOomi2DQT-28" vertex="1">
                    <mxGeometry y="106" width="139" height="19" as="geometry"/>
                </mxCell>
                <mxCell id="Mkf4frqGfS_oOomi2DQT-40" value="Colors (FK)" style="shape=partialRectangle;html=1;whiteSpace=wrap;connectable=0;overflow=hidden;fillColor=none;top=0;left=0;bottom=0;right=0;" parent="Mkf4frqGfS_oOomi2DQT-39" vertex="1">
                    <mxGeometry width="139" height="19" as="geometry"/>
                </mxCell>
                <mxCell id="Mkf4frqGfS_oOomi2DQT-41" value="" style="shape=partialRectangle;collapsible=0;dropTarget=0;pointerEvents=0;fillColor=none;top=0;left=0;bottom=0;right=0;points=[[0,0.5],[1,0.5]];portConstraint=eastwest;" parent="Mkf4frqGfS_oOomi2DQT-28" vertex="1">
                    <mxGeometry y="125" width="139" height="17" as="geometry"/>
                </mxCell>
                <mxCell id="Mkf4frqGfS_oOomi2DQT-42" value="Price" style="shape=partialRectangle;html=1;whiteSpace=wrap;connectable=0;overflow=hidden;fillColor=none;top=0;left=0;bottom=0;right=0;" parent="Mkf4frqGfS_oOomi2DQT-41" vertex="1">
                    <mxGeometry width="139" height="17" as="geometry"/>
                </mxCell>
                <mxCell id="nud4_vggpP9jGVUs2BBu-4" value="" style="shape=partialRectangle;collapsible=0;dropTarget=0;pointerEvents=0;fillColor=none;top=0;left=0;bottom=0;right=0;points=[[0,0.5],[1,0.5]];portConstraint=eastwest;" parent="Mkf4frqGfS_oOomi2DQT-28" vertex="1">
                    <mxGeometry y="142" width="139" height="17" as="geometry"/>
                </mxCell>
                <mxCell id="nud4_vggpP9jGVUs2BBu-5" value="Payment (FK)" style="shape=partialRectangle;html=1;whiteSpace=wrap;connectable=0;overflow=hidden;fillColor=none;top=0;left=0;bottom=0;right=0;" parent="nud4_vggpP9jGVUs2BBu-4" vertex="1">
                    <mxGeometry width="139" height="17" as="geometry"/>
                </mxCell>
                <mxCell id="Mkf4frqGfS_oOomi2DQT-43" value="" style="shape=partialRectangle;collapsible=0;dropTarget=0;pointerEvents=0;fillColor=none;top=0;left=0;bottom=0;right=0;points=[[0,0.5],[1,0.5]];portConstraint=eastwest;" parent="Mkf4frqGfS_oOomi2DQT-28" vertex="1">
                    <mxGeometry y="159" width="139" height="20" as="geometry"/>
                </mxCell>
                <mxCell id="Mkf4frqGfS_oOomi2DQT-44" value="Stock" style="shape=partialRectangle;html=1;whiteSpace=wrap;connectable=0;overflow=hidden;fillColor=none;top=0;left=0;bottom=0;right=0;" parent="Mkf4frqGfS_oOomi2DQT-43" vertex="1">
                    <mxGeometry width="139" height="20" as="geometry"/>
                </mxCell>
                <mxCell id="Mkf4frqGfS_oOomi2DQT-45" value="" style="shape=partialRectangle;collapsible=0;dropTarget=0;pointerEvents=0;fillColor=none;top=0;left=0;bottom=0;right=0;points=[[0,0.5],[1,0.5]];portConstraint=eastwest;" parent="Mkf4frqGfS_oOomi2DQT-28" vertex="1">
                    <mxGeometry y="179" width="139" height="18" as="geometry"/>
                </mxCell>
                <mxCell id="Mkf4frqGfS_oOomi2DQT-46" value="Discount" style="shape=partialRectangle;html=1;whiteSpace=wrap;connectable=0;overflow=hidden;fillColor=none;top=0;left=0;bottom=0;right=0;" parent="Mkf4frqGfS_oOomi2DQT-45" vertex="1">
                    <mxGeometry width="139" height="18" as="geometry"/>
                </mxCell>
                <mxCell id="Mkf4frqGfS_oOomi2DQT-69" style="shape=partialRectangle;collapsible=0;dropTarget=0;pointerEvents=0;fillColor=none;top=0;left=0;bottom=0;right=0;points=[[0,0.5],[1,0.5]];portConstraint=eastwest;" parent="Mkf4frqGfS_oOomi2DQT-28" vertex="1">
                    <mxGeometry y="197" width="139" height="19" as="geometry"/>
                </mxCell>
                <mxCell id="Mkf4frqGfS_oOomi2DQT-70" value="Detail" style="shape=partialRectangle;html=1;whiteSpace=wrap;connectable=0;overflow=hidden;fillColor=none;top=0;left=0;bottom=0;right=0;" parent="Mkf4frqGfS_oOomi2DQT-69" vertex="1">
                    <mxGeometry width="139" height="19" as="geometry"/>
                </mxCell>
                <mxCell id="Mkf4frqGfS_oOomi2DQT-71" style="shape=partialRectangle;collapsible=0;dropTarget=0;pointerEvents=0;fillColor=none;top=0;left=0;bottom=0;right=0;points=[[0,0.5],[1,0.5]];portConstraint=eastwest;" parent="Mkf4frqGfS_oOomi2DQT-28" vertex="1">
                    <mxGeometry y="216" width="139" height="17" as="geometry"/>
                </mxCell>
                <mxCell id="Mkf4frqGfS_oOomi2DQT-72" value="Shipping" style="shape=partialRectangle;html=1;whiteSpace=wrap;connectable=0;overflow=hidden;fillColor=none;top=0;left=0;bottom=0;right=0;" parent="Mkf4frqGfS_oOomi2DQT-71" vertex="1">
                    <mxGeometry width="139" height="17" as="geometry"/>
                </mxCell>
                <mxCell id="Mkf4frqGfS_oOomi2DQT-73" style="shape=partialRectangle;collapsible=0;dropTarget=0;pointerEvents=0;fillColor=none;top=0;left=0;bottom=0;right=0;points=[[0,0.5],[1,0.5]];portConstraint=eastwest;" parent="Mkf4frqGfS_oOomi2DQT-28" vertex="1">
                    <mxGeometry y="233" width="139" height="18" as="geometry"/>
                </mxCell>
                <mxCell id="Mkf4frqGfS_oOomi2DQT-74" value="Payment" style="shape=partialRectangle;html=1;whiteSpace=wrap;connectable=0;overflow=hidden;fillColor=none;top=0;left=0;bottom=0;right=0;" parent="Mkf4frqGfS_oOomi2DQT-73" vertex="1">
                    <mxGeometry width="139" height="18" as="geometry"/>
                </mxCell>
                <mxCell id="Mkf4frqGfS_oOomi2DQT-75" style="shape=partialRectangle;collapsible=0;dropTarget=0;pointerEvents=0;fillColor=none;top=0;left=0;bottom=0;right=0;points=[[0,0.5],[1,0.5]];portConstraint=eastwest;" parent="Mkf4frqGfS_oOomi2DQT-28" vertex="1">
                    <mxGeometry y="251" width="139" height="21" as="geometry"/>
                </mxCell>
                <mxCell id="Mkf4frqGfS_oOomi2DQT-76" value="Warranty" style="shape=partialRectangle;html=1;whiteSpace=wrap;connectable=0;overflow=hidden;fillColor=none;top=0;left=0;bottom=0;right=0;" parent="Mkf4frqGfS_oOomi2DQT-75" vertex="1">
                    <mxGeometry width="139" height="21" as="geometry"/>
                </mxCell>
                <mxCell id="Mkf4frqGfS_oOomi2DQT-77" style="shape=partialRectangle;collapsible=0;dropTarget=0;pointerEvents=0;fillColor=none;top=0;left=0;bottom=0;right=0;points=[[0,0.5],[1,0.5]];portConstraint=eastwest;" parent="Mkf4frqGfS_oOomi2DQT-28" vertex="1">
                    <mxGeometry y="272" width="139" height="18" as="geometry"/>
                </mxCell>
                <mxCell id="Mkf4frqGfS_oOomi2DQT-78" value="Image" style="shape=partialRectangle;html=1;whiteSpace=wrap;connectable=0;overflow=hidden;fillColor=none;top=0;left=0;bottom=0;right=0;" parent="Mkf4frqGfS_oOomi2DQT-77" vertex="1">
                    <mxGeometry width="139" height="18" as="geometry"/>
                </mxCell>
                <mxCell id="Mkf4frqGfS_oOomi2DQT-79" style="shape=partialRectangle;collapsible=0;dropTarget=0;pointerEvents=0;fillColor=none;top=0;left=0;bottom=0;right=0;points=[[0,0.5],[1,0.5]];portConstraint=eastwest;" parent="Mkf4frqGfS_oOomi2DQT-28" vertex="1">
                    <mxGeometry y="290" width="139" height="17" as="geometry"/>
                </mxCell>
                <mxCell id="Mkf4frqGfS_oOomi2DQT-80" value="Videos" style="shape=partialRectangle;html=1;whiteSpace=wrap;connectable=0;overflow=hidden;fillColor=none;top=0;left=0;bottom=0;right=0;" parent="Mkf4frqGfS_oOomi2DQT-79" vertex="1">
                    <mxGeometry width="139" height="17" as="geometry"/>
                </mxCell>
                <mxCell id="Mkf4frqGfS_oOomi2DQT-81" style="shape=partialRectangle;collapsible=0;dropTarget=0;pointerEvents=0;fillColor=none;top=0;left=0;bottom=0;right=0;points=[[0,0.5],[1,0.5]];portConstraint=eastwest;" parent="Mkf4frqGfS_oOomi2DQT-28" vertex="1">
                    <mxGeometry y="307" width="139" height="20" as="geometry"/>
                </mxCell>
                <mxCell id="Mkf4frqGfS_oOomi2DQT-82" value="Characteristics" style="shape=partialRectangle;html=1;whiteSpace=wrap;connectable=0;overflow=hidden;fillColor=none;top=0;left=0;bottom=0;right=0;" parent="Mkf4frqGfS_oOomi2DQT-81" vertex="1">
                    <mxGeometry width="139" height="20" as="geometry"/>
                </mxCell>
                <mxCell id="Mkf4frqGfS_oOomi2DQT-83" style="shape=partialRectangle;collapsible=0;dropTarget=0;pointerEvents=0;fillColor=none;top=0;left=0;bottom=0;right=0;points=[[0,0.5],[1,0.5]];portConstraint=eastwest;" parent="Mkf4frqGfS_oOomi2DQT-28" vertex="1">
                    <mxGeometry y="327" width="139" height="17" as="geometry"/>
                </mxCell>
                <mxCell id="Mkf4frqGfS_oOomi2DQT-84" value="Specs" style="shape=partialRectangle;html=1;whiteSpace=wrap;connectable=0;overflow=hidden;fillColor=none;top=0;left=0;bottom=0;right=0;" parent="Mkf4frqGfS_oOomi2DQT-83" vertex="1">
                    <mxGeometry width="139" height="17" as="geometry"/>
                </mxCell>
                <mxCell id="Mkf4frqGfS_oOomi2DQT-97" value="" style="shape=table;startSize=0;container=1;collapsible=0;childLayout=tableLayout;" parent="4qv8pB9AUuecaQSwBi2r-1" vertex="1">
                    <mxGeometry x="350" y="40" width="90" height="110" as="geometry"/>
                </mxCell>
                <mxCell id="Mkf4frqGfS_oOomi2DQT-98" value="" style="shape=partialRectangle;collapsible=0;dropTarget=0;pointerEvents=0;fillColor=none;top=0;left=0;bottom=0;right=0;points=[[0,0.5],[1,0.5]];portConstraint=eastwest;" parent="Mkf4frqGfS_oOomi2DQT-97" vertex="1">
                    <mxGeometry width="90" height="47" as="geometry"/>
                </mxCell>
                <mxCell id="Mkf4frqGfS_oOomi2DQT-99" value="&lt;font style=&quot;font-size: 15px&quot;&gt;Brands&lt;/font&gt;" style="shape=partialRectangle;html=1;whiteSpace=wrap;connectable=0;overflow=hidden;fillColor=none;top=0;left=0;bottom=0;right=0;" parent="Mkf4frqGfS_oOomi2DQT-98" vertex="1">
                    <mxGeometry width="90" height="47" as="geometry"/>
                </mxCell>
                <mxCell id="Mkf4frqGfS_oOomi2DQT-100" value="" style="shape=partialRectangle;collapsible=0;dropTarget=0;pointerEvents=0;fillColor=none;top=0;left=0;bottom=0;right=0;points=[[0,0.5],[1,0.5]];portConstraint=eastwest;" parent="Mkf4frqGfS_oOomi2DQT-97" vertex="1">
                    <mxGeometry y="47" width="90" height="32" as="geometry"/>
                </mxCell>
                <mxCell id="Mkf4frqGfS_oOomi2DQT-101" value="ID ( PK )" style="shape=partialRectangle;html=1;whiteSpace=wrap;connectable=0;overflow=hidden;fillColor=none;top=0;left=0;bottom=0;right=0;" parent="Mkf4frqGfS_oOomi2DQT-100" vertex="1">
                    <mxGeometry width="90" height="32" as="geometry"/>
                </mxCell>
                <mxCell id="Mkf4frqGfS_oOomi2DQT-102" value="" style="shape=partialRectangle;collapsible=0;dropTarget=0;pointerEvents=0;fillColor=none;top=0;left=0;bottom=0;right=0;points=[[0,0.5],[1,0.5]];portConstraint=eastwest;" parent="Mkf4frqGfS_oOomi2DQT-97" vertex="1">
                    <mxGeometry y="79" width="90" height="31" as="geometry"/>
                </mxCell>
                <mxCell id="Mkf4frqGfS_oOomi2DQT-103" value="Name" style="shape=partialRectangle;html=1;whiteSpace=wrap;connectable=0;overflow=hidden;fillColor=none;top=0;left=0;bottom=0;right=0;" parent="Mkf4frqGfS_oOomi2DQT-102" vertex="1">
                    <mxGeometry width="90" height="31" as="geometry"/>
                </mxCell>
                <mxCell id="Mkf4frqGfS_oOomi2DQT-112" value="" style="shape=table;startSize=0;container=1;collapsible=0;childLayout=tableLayout;" parent="4qv8pB9AUuecaQSwBi2r-1" vertex="1">
                    <mxGeometry x="350" y="200" width="90" height="110" as="geometry"/>
                </mxCell>
                <mxCell id="Mkf4frqGfS_oOomi2DQT-113" value="" style="shape=partialRectangle;collapsible=0;dropTarget=0;pointerEvents=0;fillColor=none;top=0;left=0;bottom=0;right=0;points=[[0,0.5],[1,0.5]];portConstraint=eastwest;" parent="Mkf4frqGfS_oOomi2DQT-112" vertex="1">
                    <mxGeometry width="90" height="47" as="geometry"/>
                </mxCell>
                <mxCell id="Mkf4frqGfS_oOomi2DQT-114" value="&lt;span style=&quot;font-size: 15px&quot;&gt;Categories&lt;/span&gt;" style="shape=partialRectangle;html=1;whiteSpace=wrap;connectable=0;overflow=hidden;fillColor=none;top=0;left=0;bottom=0;right=0;" parent="Mkf4frqGfS_oOomi2DQT-113" vertex="1">
                    <mxGeometry width="90" height="47" as="geometry"/>
                </mxCell>
                <mxCell id="Mkf4frqGfS_oOomi2DQT-115" value="" style="shape=partialRectangle;collapsible=0;dropTarget=0;pointerEvents=0;fillColor=none;top=0;left=0;bottom=0;right=0;points=[[0,0.5],[1,0.5]];portConstraint=eastwest;" parent="Mkf4frqGfS_oOomi2DQT-112" vertex="1">
                    <mxGeometry y="47" width="90" height="32" as="geometry"/>
                </mxCell>
                <mxCell id="Mkf4frqGfS_oOomi2DQT-116" value="ID ( PK )" style="shape=partialRectangle;html=1;whiteSpace=wrap;connectable=0;overflow=hidden;fillColor=none;top=0;left=0;bottom=0;right=0;" parent="Mkf4frqGfS_oOomi2DQT-115" vertex="1">
                    <mxGeometry width="90" height="32" as="geometry"/>
                </mxCell>
                <mxCell id="Mkf4frqGfS_oOomi2DQT-117" value="" style="shape=partialRectangle;collapsible=0;dropTarget=0;pointerEvents=0;fillColor=none;top=0;left=0;bottom=0;right=0;points=[[0,0.5],[1,0.5]];portConstraint=eastwest;" parent="Mkf4frqGfS_oOomi2DQT-112" vertex="1">
                    <mxGeometry y="79" width="90" height="31" as="geometry"/>
                </mxCell>
                <mxCell id="Mkf4frqGfS_oOomi2DQT-118" value="Name" style="shape=partialRectangle;html=1;whiteSpace=wrap;connectable=0;overflow=hidden;fillColor=none;top=0;left=0;bottom=0;right=0;" parent="Mkf4frqGfS_oOomi2DQT-117" vertex="1">
                    <mxGeometry width="90" height="31" as="geometry"/>
                </mxCell>
                <mxCell id="Mkf4frqGfS_oOomi2DQT-121" style="rounded=0;orthogonalLoop=1;jettySize=auto;html=1;exitX=1;exitY=0.5;exitDx=0;exitDy=0;entryX=0;entryY=0.5;entryDx=0;entryDy=0;strokeColor=none;endArrow=ERone;endFill=0;" parent="4qv8pB9AUuecaQSwBi2r-1" source="Mkf4frqGfS_oOomi2DQT-35" target="Mkf4frqGfS_oOomi2DQT-98" edge="1">
                    <mxGeometry relative="1" as="geometry">
                        <mxPoint x="360" y="80" as="targetPoint"/>
                    </mxGeometry>
                </mxCell>
                <mxCell id="Mkf4frqGfS_oOomi2DQT-126" style="rounded=0;orthogonalLoop=1;jettySize=auto;html=1;exitX=1;exitY=0.5;exitDx=0;exitDy=0;entryX=0;entryY=0.5;entryDx=0;entryDy=0;strokeColor=none;endArrow=ERone;endFill=0;" parent="4qv8pB9AUuecaQSwBi2r-1" edge="1">
                    <mxGeometry relative="1" as="geometry">
                        <mxPoint x="399" y="60" as="targetPoint"/>
                        <mxPoint x="180" y="112.5" as="sourcePoint"/>
                    </mxGeometry>
                </mxCell>
                <mxCell id="Mkf4frqGfS_oOomi2DQT-128" value="" style="shape=table;startSize=0;container=1;collapsible=0;childLayout=tableLayout;" parent="4qv8pB9AUuecaQSwBi2r-1" vertex="1">
                    <mxGeometry x="350" y="367" width="90" height="110" as="geometry"/>
                </mxCell>
                <mxCell id="Mkf4frqGfS_oOomi2DQT-129" value="" style="shape=partialRectangle;collapsible=0;dropTarget=0;pointerEvents=0;fillColor=none;top=0;left=0;bottom=0;right=0;points=[[0,0.5],[1,0.5]];portConstraint=eastwest;" parent="Mkf4frqGfS_oOomi2DQT-128" vertex="1">
                    <mxGeometry width="90" height="47" as="geometry"/>
                </mxCell>
                <mxCell id="Mkf4frqGfS_oOomi2DQT-130" value="&lt;span style=&quot;font-size: 15px&quot;&gt;Colors&lt;/span&gt;" style="shape=partialRectangle;html=1;whiteSpace=wrap;connectable=0;overflow=hidden;fillColor=none;top=0;left=0;bottom=0;right=0;" parent="Mkf4frqGfS_oOomi2DQT-129" vertex="1">
                    <mxGeometry width="90" height="47" as="geometry"/>
                </mxCell>
                <mxCell id="Mkf4frqGfS_oOomi2DQT-131" value="" style="shape=partialRectangle;collapsible=0;dropTarget=0;pointerEvents=0;fillColor=none;top=0;left=0;bottom=0;right=0;points=[[0,0.5],[1,0.5]];portConstraint=eastwest;" parent="Mkf4frqGfS_oOomi2DQT-128" vertex="1">
                    <mxGeometry y="47" width="90" height="32" as="geometry"/>
                </mxCell>
                <mxCell id="Mkf4frqGfS_oOomi2DQT-132" value="ID ( PK )" style="shape=partialRectangle;html=1;whiteSpace=wrap;connectable=0;overflow=hidden;fillColor=none;top=0;left=0;bottom=0;right=0;" parent="Mkf4frqGfS_oOomi2DQT-131" vertex="1">
                    <mxGeometry width="90" height="32" as="geometry"/>
                </mxCell>
                <mxCell id="Mkf4frqGfS_oOomi2DQT-133" value="" style="shape=partialRectangle;collapsible=0;dropTarget=0;pointerEvents=0;fillColor=none;top=0;left=0;bottom=0;right=0;points=[[0,0.5],[1,0.5]];portConstraint=eastwest;" parent="Mkf4frqGfS_oOomi2DQT-128" vertex="1">
                    <mxGeometry y="79" width="90" height="31" as="geometry"/>
                </mxCell>
                <mxCell id="Mkf4frqGfS_oOomi2DQT-134" value="Name" style="shape=partialRectangle;html=1;whiteSpace=wrap;connectable=0;overflow=hidden;fillColor=none;top=0;left=0;bottom=0;right=0;" parent="Mkf4frqGfS_oOomi2DQT-133" vertex="1">
                    <mxGeometry width="90" height="31" as="geometry"/>
                </mxCell>
                <mxCell id="Mkf4frqGfS_oOomi2DQT-159" style="edgeStyle=orthogonalEdgeStyle;rounded=0;orthogonalLoop=1;jettySize=auto;html=1;exitX=1;exitY=0.5;exitDx=0;exitDy=0;entryX=0;entryY=0.5;entryDx=0;entryDy=0;startArrow=ERmany;startFill=0;endArrow=ERone;endFill=0;" parent="4qv8pB9AUuecaQSwBi2r-1" source="Mkf4frqGfS_oOomi2DQT-35" target="Mkf4frqGfS_oOomi2DQT-100" edge="1">
                    <mxGeometry relative="1" as="geometry"/>
                </mxCell>
                <mxCell id="Mkf4frqGfS_oOomi2DQT-160" style="edgeStyle=orthogonalEdgeStyle;rounded=0;orthogonalLoop=1;jettySize=auto;html=1;exitX=1;exitY=0.5;exitDx=0;exitDy=0;entryX=0;entryY=0.5;entryDx=0;entryDy=0;startArrow=ERmany;startFill=0;endArrow=ERone;endFill=0;" parent="4qv8pB9AUuecaQSwBi2r-1" source="Mkf4frqGfS_oOomi2DQT-37" target="Mkf4frqGfS_oOomi2DQT-115" edge="1">
                    <mxGeometry relative="1" as="geometry"/>
                </mxCell>
                <mxCell id="Mkf4frqGfS_oOomi2DQT-161" style="rounded=0;orthogonalLoop=1;jettySize=auto;html=1;exitX=1;exitY=0.5;exitDx=0;exitDy=0;entryX=0;entryY=0.5;entryDx=0;entryDy=0;startArrow=ERmany;startFill=0;endArrow=ERmany;endFill=0;" parent="4qv8pB9AUuecaQSwBi2r-1" source="Mkf4frqGfS_oOomi2DQT-39" target="Mkf4frqGfS_oOomi2DQT-131" edge="1">
                    <mxGeometry relative="1" as="geometry">
                        <Array as="points">
                            <mxPoint x="240" y="156"/>
                            <mxPoint x="240" y="240"/>
                            <mxPoint x="240" y="310"/>
                            <mxPoint x="320" y="310"/>
                            <mxPoint x="320" y="430"/>
                        </Array>
                    </mxGeometry>
                </mxCell>
                <mxCell id="nud4_vggpP9jGVUs2BBu-6" value="" style="shape=table;startSize=0;container=1;collapsible=0;childLayout=tableLayout;" parent="4qv8pB9AUuecaQSwBi2r-1" vertex="1">
                    <mxGeometry x="260" y="520" width="90" height="172" as="geometry"/>
                </mxCell>
                <mxCell id="nud4_vggpP9jGVUs2BBu-7" value="" style="shape=partialRectangle;collapsible=0;dropTarget=0;pointerEvents=0;fillColor=none;top=0;left=0;bottom=0;right=0;points=[[0,0.5],[1,0.5]];portConstraint=eastwest;" parent="nud4_vggpP9jGVUs2BBu-6" vertex="1">
                    <mxGeometry width="90" height="47" as="geometry"/>
                </mxCell>
                <mxCell id="nud4_vggpP9jGVUs2BBu-8" value="&lt;span style=&quot;font-size: 15px&quot;&gt;Payment&lt;/span&gt;" style="shape=partialRectangle;html=1;whiteSpace=wrap;connectable=0;overflow=hidden;fillColor=none;top=0;left=0;bottom=0;right=0;" parent="nud4_vggpP9jGVUs2BBu-7" vertex="1">
                    <mxGeometry width="90" height="47" as="geometry"/>
                </mxCell>
                <mxCell id="nud4_vggpP9jGVUs2BBu-9" value="" style="shape=partialRectangle;collapsible=0;dropTarget=0;pointerEvents=0;fillColor=none;top=0;left=0;bottom=0;right=0;points=[[0,0.5],[1,0.5]];portConstraint=eastwest;" parent="nud4_vggpP9jGVUs2BBu-6" vertex="1">
                    <mxGeometry y="47" width="90" height="32" as="geometry"/>
                </mxCell>
                <mxCell id="nud4_vggpP9jGVUs2BBu-10" value="ID ( PK )" style="shape=partialRectangle;html=1;whiteSpace=wrap;connectable=0;overflow=hidden;fillColor=none;top=0;left=0;bottom=0;right=0;" parent="nud4_vggpP9jGVUs2BBu-9" vertex="1">
                    <mxGeometry width="90" height="32" as="geometry"/>
                </mxCell>
                <mxCell id="nud4_vggpP9jGVUs2BBu-11" value="" style="shape=partialRectangle;collapsible=0;dropTarget=0;pointerEvents=0;fillColor=none;top=0;left=0;bottom=0;right=0;points=[[0,0.5],[1,0.5]];portConstraint=eastwest;" parent="nud4_vggpP9jGVUs2BBu-6" vertex="1">
                    <mxGeometry y="79" width="90" height="31" as="geometry"/>
                </mxCell>
                <mxCell id="nud4_vggpP9jGVUs2BBu-12" value="Name" style="shape=partialRectangle;html=1;whiteSpace=wrap;connectable=0;overflow=hidden;fillColor=none;top=0;left=0;bottom=0;right=0;" parent="nud4_vggpP9jGVUs2BBu-11" vertex="1">
                    <mxGeometry width="90" height="31" as="geometry"/>
                </mxCell>
                <mxCell id="asVMyTCZYAo5FJhZOuq3-0" style="shape=partialRectangle;collapsible=0;dropTarget=0;pointerEvents=0;fillColor=none;top=0;left=0;bottom=0;right=0;points=[[0,0.5],[1,0.5]];portConstraint=eastwest;" vertex="1" parent="nud4_vggpP9jGVUs2BBu-6">
                    <mxGeometry y="110" width="90" height="31" as="geometry"/>
                </mxCell>
                <mxCell id="asVMyTCZYAo5FJhZOuq3-1" value="Type" style="shape=partialRectangle;html=1;whiteSpace=wrap;connectable=0;overflow=hidden;fillColor=none;top=0;left=0;bottom=0;right=0;" vertex="1" parent="asVMyTCZYAo5FJhZOuq3-0">
                    <mxGeometry width="90" height="31" as="geometry"/>
                </mxCell>
                <mxCell id="asVMyTCZYAo5FJhZOuq3-2" style="shape=partialRectangle;collapsible=0;dropTarget=0;pointerEvents=0;fillColor=none;top=0;left=0;bottom=0;right=0;points=[[0,0.5],[1,0.5]];portConstraint=eastwest;" vertex="1" parent="nud4_vggpP9jGVUs2BBu-6">
                    <mxGeometry y="141" width="90" height="31" as="geometry"/>
                </mxCell>
                <mxCell id="asVMyTCZYAo5FJhZOuq3-3" value="&lt;span&gt;Installments&lt;/span&gt;" style="shape=partialRectangle;html=1;whiteSpace=wrap;connectable=0;overflow=hidden;fillColor=none;top=0;left=0;bottom=0;right=0;" vertex="1" parent="asVMyTCZYAo5FJhZOuq3-2">
                    <mxGeometry width="90" height="31" as="geometry"/>
                </mxCell>
                <mxCell id="nud4_vggpP9jGVUs2BBu-13" style="edgeStyle=none;rounded=0;orthogonalLoop=1;jettySize=auto;html=1;exitX=1;exitY=0.5;exitDx=0;exitDy=0;entryX=0;entryY=0.5;entryDx=0;entryDy=0;startArrow=ERmany;startFill=0;endArrow=ERmany;endFill=0;" parent="4qv8pB9AUuecaQSwBi2r-1" source="nud4_vggpP9jGVUs2BBu-4" target="nud4_vggpP9jGVUs2BBu-9" edge="1">
                    <mxGeometry relative="1" as="geometry">
                        <Array as="points">
                            <mxPoint x="220" y="191"/>
                            <mxPoint x="220" y="360"/>
                            <mxPoint x="220" y="480"/>
                            <mxPoint x="220" y="583"/>
                        </Array>
                    </mxGeometry>
                </mxCell>
            </root>
        </mxGraphModel>
    </diagram>
</mxfile>